<svg id="Layer_1" data-name="Layer 1" xmlns="http://www.w3.org/2000/svg" viewBox="0 0 184.81 75"><defs><style>.cls-1{fill:#0e1111;}</style></defs><path d="M70.6,34.42A11.55,11.55,0,0,1,68.8,37H15.3a17.35,17.35,0,0,1-1.73-2.59Zm-4,5.33H17.48A13.92,13.92,0,0,0,20,42.14H63.84A8.36,8.36,0,0,0,66.6,39.75Zm-6.07,4.93H47.06a29.72,29.72,0,0,0-.4,5.6A27.54,27.54,0,0,0,60.53,44.68ZM75.6,17c-6.13.4-14.92,4.53-20.65,11.26a22.62,22.62,0,0,0-2.73,3.66H72C74.6,26.56,76,21.3,75.6,17ZM37.34,50.28a32.76,32.76,0,0,0-.22-5.6H23.55A28.18,28.18,0,0,0,37.34,50.28Zm4.74.39a27.1,27.1,0,0,0,4.19-6H37.81A24.79,24.79,0,0,0,42.08,50.67ZM32,31.88a27.68,27.68,0,0,0-2.74-3.66C23.55,21.49,14.68,17.36,8.63,17c-.41,4.34.92,9.6,3.59,14.92Zm18.59,0c.13-1.54.26-3,.26-4.73,0-9.31-4.19-19-8.81-23.32-4.66,4.34-8.78,14-8.78,23.32a28.64,28.64,0,0,0,.25,4.73Zm19.86,37.6c2.8,0,5.13-1.13,5.13-3.93,0-1.61-1.13-2.68-2.93-3.12S68.4,62,68.4,60.82c.13-.81.87-1,2-1,1.73,0,1.79.94,1.86,1.54h2.86c-.19-2.21-2-3.72-4.85-3.72s-4.73,1.6-4.73,3.67a3.12,3.12,0,0,0,1.61,2.8,11,11,0,0,0,2.93.79c1.26.13,2.39.26,2.45,1.14,0,.6-.59,1.32-1.92,1.32-1.92,0-2.33-1.07-2.33-1.79h-3c0,2.28,2,3.91,5.17,3.91ZM54.8,63.54a3.39,3.39,0,0,0,3.34,3.27,3.31,3.31,0,0,0,0-6.61A3.4,3.4,0,0,0,54.8,63.54ZM58,69.48a6,6,0,0,1-6-5.94,6,6,0,0,1,6-5.92h0a5.65,5.65,0,0,1,3.33,1v-.88h2.87V69.2H61.34v-.73a6.17,6.17,0,0,1-3.33,1ZM41.68,63.54A3.3,3.3,0,1,0,45,60.2,3.37,3.37,0,0,0,41.68,63.54Zm6.6-9.73h2.8V69.2h-2.8v-.73a6.38,6.38,0,0,1-3.4,1,5.93,5.93,0,1,1,3.4-10.86V53.81ZM34.94,56.68V53.81h2.8v2.87Zm2.8,12.52h-2.8V57.74h2.8V69.2ZM24,63.54a3.34,3.34,0,1,0,3.4-3.34A3.4,3.4,0,0,0,24,63.54Zm3.27,5.94a6,6,0,0,1-6-5.94,6,6,0,0,1,6-5.92h0a6,6,0,0,1,3.4,1V53.81h2.86V69.2H30.69v-.73a6.62,6.62,0,0,1-3.4,1ZM10.9,63.54a3.34,3.34,0,0,0,6.67,0,3.43,3.43,0,0,0-3.4-3.34A3.39,3.39,0,0,0,10.9,63.54Zm3.18,5.94a6,6,0,0,1-5.92-5.94A5.88,5.88,0,0,1,14,57.62h.05a6.15,6.15,0,0,1,3.46,1v-.88h2.8V69.2H17.57v-.73a6.65,6.65,0,0,1-3.49,1Z"/><path d="M76.17,57.12a2,2,0,1,1,2-2,2,2,0,0,1-2,2Zm0-3.62a1.67,1.67,0,0,0,0,3.33,1.67,1.67,0,1,0,0-3.33Z"/><path d="M76.67,56.24l-.5-.87h-.32v.87h-.29V54.08h.73a.66.66,0,0,1,.67.64h0a.59.59,0,0,1-.47.59l.5.9-.32,0Zm-.44-1.9h-.41v.76h.41a.39.39,0,0,0,.41-.38h0a.37.37,0,0,0-.37-.38Z"/><path class="cls-1" d="M170.66,69.57c-3.2,0-5.06-1.77-5.14-4.22h3c0,.76.43,1.94,2.45,2a1.77,1.77,0,0,0,1.94-1.44c-.17-1.09-1.27-1.18-2.53-1.35a9.06,9.06,0,0,1-3.12-.84,3.66,3.66,0,0,1-1.6-3c0-2.19,1.77-4,4.8-4,2.87,0,4.64,1.69,4.81,4.13h-2.78c0-.67-.17-1.68-1.86-1.68-1.18-.09-1.94.17-2,1,0,1.26,2.44,1.18,4.22,1.77s2.95,1.69,2.95,3.37c0,3-2.36,4.22-5.15,4.22"/><path class="cls-1" d="M115.58,49l10-6.16,5.32,9.87H117.52L115.58,49"/><path class="cls-1" d="M135.13,69.26H138V56.86h-2.87Zm-24-6.16a3.38,3.38,0,1,0,6.75,0,3.56,3.56,0,0,0-3.37-3.63,3.62,3.62,0,0,0-3.38,3.63m3.12,6.41a6.41,6.41,0,1,1,3.46-11.72v-1h2.87V69.26h-2.87v-.84a5.68,5.68,0,0,1-3.46,1.09m38.38-16.87-13.83-26,10-6.24L166,52.64H152.59M124.17,63.1a3.48,3.48,0,0,0,3.37,3.54,3.59,3.59,0,0,0,0-7.17,3.62,3.62,0,0,0-3.37,3.63m3.29,6.41a6.42,6.42,0,0,1,0-12.82,5.73,5.73,0,0,1,3.37,1.1V52.64h2.87V69.26h-2.87v-.84a5.79,5.79,0,0,1-3.37,1.09"/><path class="cls-1" d="M127.22,38l10-6.16,11.21,20.92H137.93v3.12h-2.87V52.74L127.22,38M174,55.69a1.52,1.52,0,1,1,1.43-1.52A1.5,1.5,0,0,1,174,55.69m0-2.78a1.36,1.36,0,1,0,1.18,1.35A1.31,1.31,0,0,0,174,52.91"/><path class="cls-1" d="M174.29,55l-.34-.67h-.25V55h-.26V53.35H174a.55.55,0,0,1,.5.51.38.38,0,0,1-.33.42l.33.76ZM174,53.52h-.25v.59H174c.17,0,.25-.08.34-.25h0A.37.37,0,0,0,174,53.52Zm-19,9.62a3.3,3.3,0,1,0,6.58,0,3.55,3.55,0,0,0-3.29-3.63A3.49,3.49,0,0,0,155,63.14m3.12,6.41a6.43,6.43,0,0,1,0-12.82,5.75,5.75,0,0,1,3.37,1.09V56.9h2.87V69.3h-2.78v-.85a6.18,6.18,0,0,1-3.46,1.1m-16.28-6.41a3.34,3.34,0,1,0,6.67,0,3.35,3.35,0,1,0-6.67,0m6.58-10.46h2.87V69.3h-2.87v-.85a5.62,5.62,0,0,1-3.46,1.1,6.41,6.41,0,1,1,3.46-11.73V52.68"/><rect x="92.48" y="3.6" width="1.5" height="65.6"/></svg>