<svg id="Layer_1" data-name="Layer 1" xmlns="http://www.w3.org/2000/svg" width="251.91" height="126.51" viewBox="0 0 251.91 126.51"><title>Puma-black-logo</title><path d="M135.7.4c-.8.1-1.6,3.2-3.2,4.7-1.2,1.2-2.6,1.1-3.4,2.5a21.41,21.41,0,0,0-.5,2.3c-.7,1.7-2.9,1.9-2.9,3.8,0,2.1,1.9,2.4,3.6,3.9,1.3,1.2,1.4,2,3,2.5,1.3.5,3.3-1,5.1-.5,1.5.4,2.9.8,3.2,2.3s0,3.6-1.8,3.3a17.13,17.13,0,0,0-6.4-.6c-3.9.4-8.3,1.7-8.7,6-.2,2.4,2.7,5.2,5.6,4.7,2-.4,1-2.7,2.1-3.9,1.4-1.5,9.5,5.1,17,5.1a9.86,9.86,0,0,0,7.8-3.2c.2-.2.5-.6.8-.6a2.22,2.22,0,0,1,1.1.5c6,4.9,10.6,14.6,32.8,14.7a14.75,14.75,0,0,1,9.6,4.2c2.6,2.4,4.1,6.1,5.6,9.9,2.2,5.7,6.2,11.2,12.2,17.3.3.3,5.3,4.2,5.7,4.5a2.21,2.21,0,0,1,.3,1.4c-.1,3.7-.7,14.4,7.3,14.8,2,.1,1.5-1.3,1.4-2.2,0-1.9-.3-3.7.6-5.6,1.3-2.6-2.8-3.8-2.7-9.5.1-4.2-3.5-3.5-5.3-6.7-1-1.9-2-2.8-1.9-5.1.4-12.8-2.7-21.3-4.3-23.3-1.2-1.6-2.2-2.2-1.1-2.9,6.7-4.4,8.2-8.5,8.2-8.5,3.5-8.3,6.7-15.9,11.1-19.3a32,32,0,0,1,4.5-3c4.1-1.9,6.3-3.1,7.4-4.3,1.9-1.8,3.4-5.7,1.6-8-2.2-2.9-6.1-.6-7.8.4-12.2,7.3-14,20.1-18.3,27.4-3.4,5.9-8.9,10.2-13.8,10.5a24.66,24.66,0,0,1-11.6-2.2,59.08,59.08,0,0,1-16.1-10.6c-2.6-2-22.6-21.7-38.9-22.5,0,0-2-4-2.5-4.1-1.2-.1-2.4,2.4-3.3,2.7C137.9,3.3,136.5.3,135.7.4Z" transform="translate(0 -0.19)"/><path d="M64.2,117.9a2.86,2.86,0,0,1-2.8-2.8V64.4H44.7v55.8a5,5,0,0,0,4.9,5H78.8a4.93,4.93,0,0,0,4.9-5V64.4H67.1v50.7A3,3,0,0,1,64.2,117.9Z" transform="translate(0 -0.19)"/><path d="M120.1,64.4H94.9a5.4,5.4,0,0,0-5.4,5.5v55.3h16.7V74.4a2.86,2.86,0,0,1,2.8-2.8,2.71,2.71,0,0,1,2.8,2.7v50.8h16.6V74.3a2.78,2.78,0,0,1,2.8-2.7,2.73,2.73,0,0,1,2.8,2.8v50.8h16.7V69.8a5.46,5.46,0,0,0-5.4-5.5l-25.2.1Z" transform="translate(0 -0.19)"/><path d="M33.6,109.9H16.7v15.3H0V64.4H33.7a5.4,5.4,0,0,1,5.4,5.5v34.6A5.6,5.6,0,0,1,33.6,109.9ZM22.4,74.5a2.88,2.88,0,0,0-2.8-2.9H16.8v30.8h2.8a2.82,2.82,0,0,0,2.8-2.9Z" transform="translate(0 -0.19)"/><path d="M215.6,119.2a7.45,7.45,0,1,1-7.6-7.5A7.47,7.47,0,0,1,215.6,119.2Zm-7.5-6.4a6.25,6.25,0,1,0,.1,0Z" transform="translate(0 -0.19)"/><path d="M211.7,123.5h-2l-2.6-3.4v3.4h-1.6v-8.6h1.7c2.3,0,3.6.9,3.6,2.6a2.49,2.49,0,0,1-1.7,2.4H209Zm-4.3-4.8q1.8,0,1.8-1.2c0-.7-.6-1.1-1.7-1.1h-.3v2.3Z" transform="translate(0 -0.19)"/><path d="M178.8,125.2V109.9h-5.7v15.3H156.4V69.9a5.46,5.46,0,0,1,5.4-5.5H190a5.4,5.4,0,0,1,5.4,5.5v55.3Zm0-22.8v-28a2.78,2.78,0,0,0-2.8-2.7,2.73,2.73,0,0,0-2.8,2.8v28Z" transform="translate(0 -0.19)"/></svg>